<?xml version="1.0" encoding="utf-8"?>
<!-- Generator: Adobe Illustrator 23.1.0, SVG Export Plug-In . SVG Version: 6.00 Build 0)  -->
<svg version="1.1" id="Layer_1" xmlns="http://www.w3.org/2000/svg" xmlns:xlink="http://www.w3.org/1999/xlink" x="0px" y="0px"
	 viewBox="0 0 792 147.5" style="enable-background:new 0 0 792 147.5;" xml:space="preserve">
<style type="text/css">
	.st0{fill:#FFFFFF;}
</style>
<g>
	<g>
		<path class="st0" d="M127.4,96.1c7.5-0.4,14.5-1.5,17.9-2.1c1-3.5,1.7-7.1,2.2-10.8c-1.5,0.3-12.9,2.9-23.8,2.9
			c-9,0-12.2-5.5-12.2-12.2c0-6.7,2.6-12.2,12.2-12.2c8.8,0,21.8,2.4,23.8,2.7c-0.5-3.6-1.2-7.2-2.2-10.7
			c-3.6-0.6-10.7-1.6-17.9-2.1c5-5.6,9.1-11.2,11.2-14.2c-1.8-3.2-3.8-6.3-6.1-9.2c-0.9,1.4-7.2,11.2-14.8,18.9
			c-6.4,6.3-12.5,4.8-17.3,0c-4.8-4.8-6.8-10.5,0-17.3c6.2-6.2,16.9-13.7,18.8-14.9c-2.9-2.2-5.9-4.2-9-6c-3,2.1-8.7,6.4-14.1,11.2
			C95.7,12.7,94.6,5.7,94,2.2c-3.5-1-7.1-1.7-10.8-2.2c0.3,1.5,2.9,12.9,2.9,23.8c0,9-5.5,12.2-12.2,12.2c-6.7,0-12.2-2.6-12.2-12.2
			C61.7,15,64,2,64.4,0c-3.6,0.5-7.2,1.2-10.7,2.2c-0.6,3.6-1.6,10.6-2.1,17.9c-5.6-5-11.2-9.1-14.2-11.2c-3.2,1.8-6.3,3.8-9.2,6.1
			c1.4,0.9,11.2,7.2,18.8,14.8c6.4,6.3,4.8,12.5,0,17.3c-4.8,4.8-10.5,6.8-17.3,0C23.7,40.8,16.3,30.1,15,28.3c-2.2,2.9-4.2,5.9-6,9
			c2.1,3,6.4,8.7,11.2,14.1c-7.5,0.4-14.5,1.5-17.9,2.1C1.2,57,0.5,60.6,0,64.3C1.5,64,13,61.4,23.9,61.4c9,0,12.2,5.5,12.2,12.2
			s-2.6,12.2-12.2,12.2C15,85.9,2,83.5,0,83.1c0.5,3.6,1.2,7.2,2.2,10.6c3.6,0.6,10.7,1.6,17.9,2.1c-5,5.6-9.1,11.2-11.2,14.2
			c1.8,3.2,3.8,6.3,6.1,9.2c0.9-1.4,7.2-11.2,14.8-18.9c6.4-6.3,12.5-4.8,17.3,0c4.8,4.8,6.8,10.5,0,17.3
			c-6.2,6.2-16.9,13.7-18.8,14.9c2.9,2.2,5.9,4.2,9,6c3-2.1,8.7-6.4,14.1-11.2c0.4,7.5,1.5,14.5,2.1,17.9c3.5,1,7.1,1.7,10.8,2.2
			c-0.3-1.5-2.9-12.9-2.9-23.8c0-9,5.5-12.2,12.2-12.2c6.7,0,12.2,2.6,12.2,12.2c0,8.8-2.4,21.8-2.7,23.8c3.6-0.5,7.2-1.2,10.7-2.2
			c0.6-3.6,1.6-10.7,2.1-17.9c5.6,5,11.2,9.1,14.2,11.2c3.2-1.8,6.3-3.8,9.2-6.1c-1.4-0.9-11.2-7.2-18.9-14.8
			c-6.3-6.4-4.8-12.5,0-17.3c4.8-4.8,10.5-6.8,17.3,0c6.2,6.2,13.7,17,14.9,18.8c2.2-2.9,4.2-5.9,6-9
			C136.4,107.2,132.2,101.5,127.4,96.1 M73.6,105.6c-17.7,0-32.1-14.4-32.1-32.1s14.4-32.1,32.1-32.1c17.7,0,32.1,14.4,32.1,32.1
			S91.4,105.6,73.6,105.6"/>
		<path class="st0" d="M103.4,103.3c-2.6,2.6-2.6,6.8,0,9.3s6.8,2.6,9.3,0s2.6-6.8,0-9.3C110.2,100.7,106,100.7,103.4,103.3"/>
		<path class="st0" d="M43.8,112.6c2.6-2.6,2.6-6.8,0-9.3c-2.6-2.6-6.8-2.6-9.3,0c-2.6,2.6-2.6,6.8,0,9.3
			C37.1,115.2,41.3,115.2,43.8,112.6"/>
		<path class="st0" d="M73.6,115.6c-3.6,0-6.6,3-6.6,6.6c0,3.6,3,6.6,6.6,6.6s6.6-3,6.6-6.6C80.2,118.6,77.3,115.6,73.6,115.6"/>
		<path class="st0" d="M115.8,73.5c0,3.6,3,6.6,6.6,6.6c3.6,0,6.6-3,6.6-6.6c0-3.6-3-6.6-6.6-6.6C118.7,66.9,115.8,69.8,115.8,73.5"
			/>
		<path class="st0" d="M103.4,34.3c-2.6,2.6-2.6,6.8,0,9.3c2.6,2.6,6.8,2.6,9.3,0c2.6-2.6,2.6-6.8,0-9.3
			C110.2,31.8,106,31.8,103.4,34.3"/>
		<path class="st0" d="M43.8,43.7c2.6-2.6,2.6-6.8,0-9.3c-2.6-2.6-6.8-2.6-9.3,0c-2.6,2.6-2.6,6.8,0,9.3
			C37.1,46.3,41.3,46.3,43.8,43.7"/>
		<path class="st0" d="M31.5,73.5c0-3.6-3-6.6-6.6-6.6s-6.6,3-6.6,6.6s3,6.6,6.6,6.6S31.5,77.1,31.5,73.5"/>
		<path class="st0" d="M73.7,31.3c3.6,0,6.6-3,6.6-6.6c0-3.6-3-6.6-6.6-6.6c-3.6,0-6.6,3-6.6,6.6C67,28.4,70,31.3,73.7,31.3"/>
	</g>
	<g>
		<path class="st0" d="M267.4,41.4c-5,22.3-10.1,42.2-16.6,64.9c-0.9,3.2-2.8,5.3-5.9,5.3c-2.8,0-5-1.9-5.9-5.2
			c-5.2-18-9.5-34.7-13.6-52c-4,17.3-8.4,34-13.6,52c-0.9,3.2-3.1,5.2-5.9,5.2c-3.1,0-5-2-5.9-5.3c-6.5-22.7-11.6-42.6-16.6-64.9
			c-0.1-0.4-0.2-0.8-0.2-1.2c0-2.7,2.3-4.2,4.7-4.2c1.8,0,3.7,1.1,4.3,3.5c4.2,19.1,8.7,37.1,14.1,56.7c5.3-19,9.7-36.7,13.7-54.9
			c0.7-3.1,2.4-5.4,5.6-5.4s4.7,2.1,5.4,5.4c4,18,8.4,35.8,13.7,54.9c5.5-19.6,9.9-37.6,14.1-56.7c0.6-2.4,2.4-3.5,4.3-3.5
			c2.3,0,4.7,1.6,4.7,4.2C267.6,40.6,267.5,41,267.4,41.4"/>
		<path class="st0" d="M303.1,111.6c-17.4,0-25.3-11.2-25.3-24.9V40.5c0-2.5,2-4.5,4.6-4.5c2.4,0,4.5,2,4.5,4.5v46
			c0,9,4.2,17,16.3,17c11.9,0,16.2-8,16.2-17v-46c0-2.4,2-4.5,4.6-4.5c2.4,0,4.6,2.1,4.6,4.5v46.2
			C328.4,100.3,320.4,111.6,303.1,111.6"/>
		<path class="st0" d="M362.5,111.6c-7.6,0-13.7-0.9-19.4-3.2c-2-0.8-3-2.4-3-4.2c0-2.2,1.6-4.3,4.1-4.3c1.8,0,3.5,1.5,8.6,2.5
			c2.3,0.5,5.3,0.9,9,0.9c12.3,0,17.9-5.6,17.9-13.6c0-6.2-3.2-8.9-9.8-10.9c-5.5-1.6-14.9-2.5-20.4-5.3c-5.4-2.6-9.1-7.2-9.1-15.7
			c0-13.9,10.2-21.8,23.8-21.8c6.3,0,11.7,0.7,16.8,2.8c2.1,0.8,3,2.4,3,4c0,2.2-1.6,4.4-4.2,4.4c-1.6,0-3.2-1.2-7.4-2.1
			c-1.9-0.4-4.5-0.7-7.7-0.7c-9.5,0-15.2,4.9-15.2,12.6c0,6.5,3.7,8.9,10,10.6c6.8,1.9,16.5,2.5,22.1,6.3c4.8,3.1,7.3,7.9,7.3,15.1
			C388.8,103.5,378.4,111.6,362.5,111.6"/>
		<path class="st0" d="M443.3,105.1c-4.7,4.7-11.9,6.5-17.5,6.5c-18.8,0-25.7-12.9-25.7-31.8V67.7c0-18.2,7.2-31.8,26.2-31.8
			c6.2,0,12.6,1.8,16.9,6.2c1.1,1.2,1.7,2.2,1.7,3.3c0,1.9-1.4,4.1-4.2,4.2c-1.4,0-2.2-0.9-3.8-2.1c-2.8-2.1-6.2-3.2-10.5-3.2
			c-11.7,0-17.1,8.1-17.1,23.7v11.8c0,16.4,5.1,23.6,16.6,23.6c3.9,0,8-1.1,11.3-3.5c1.6-1.2,2.5-2,3.9-2c2.4-0.1,3.9,1.8,3.9,3.9
			C445,102.8,444.5,104,443.3,105.1"/>
		<path class="st0" d="M583.3,110.7H548c-2.4,0-4.3-1.9-4.3-4.4V41.2c0-2.3,1.9-4.4,4.3-4.4h33.7c2.4,0,4.4,2,4.4,4.4
			c0,2.4-1.9,4.4-4.4,4.4h-28.9v24h26.4c2.3,0,4.2,1.9,4.2,4.2c0,2.3-1.8,4.3-4.2,4.3h-26.4V102h30.5c2.4,0,4.4,1.9,4.4,4.4
			C587.6,108.7,585.6,110.7,583.3,110.7"/>
		<path class="st0" d="M627,111.6c-17.4,0-25.3-11.2-25.3-24.9V40.5c0-2.5,2-4.5,4.6-4.5c2.4,0,4.5,2,4.5,4.5v46c0,9,4.2,17,16.3,17
			c11.9,0,16.2-8,16.2-17v-46c0-2.4,2-4.5,4.6-4.5c2.4,0,4.5,2.1,4.5,4.5v46.2C652.3,100.3,644.3,111.6,627,111.6"/>
		<path class="st0" d="M732,107.3c0,2.3-1.9,4.3-4.2,4.3c-2.3,0-4.3-1.9-4.3-4.3v-51l-18.7,39.9c-0.8,1.7-2.4,2.6-4.1,2.6
			c-1.7,0-3.3-0.9-4.1-2.6l-18.7-39.8v51c0,2.2-1.9,4.2-4.3,4.2c-2.3,0-4.1-1.9-4.1-4.2V40.2c0-2.4,1.8-4.2,4.4-4.2
			c2.2,0,3.5,0.9,4.5,2.7l22.6,47.4l22.7-47.6c1-2,2.6-2.5,4.2-2.5c2.5,0,4.3,1.9,4.3,4.2"/>
		<path class="st0" d="M790.4,105.1c-4.7,4.7-11.9,6.5-17.5,6.5c-18.8,0-25.7-12.9-25.7-31.8V67.7c0-18.2,7.2-31.8,26.2-31.8
			c6.2,0,12.6,1.8,16.9,6.2c1.1,1.2,1.7,2.2,1.7,3.3c0,1.9-1.4,4.1-4.3,4.2c-1.4,0-2.2-0.9-3.8-2.1c-2.7-2.1-6.2-3.2-10.5-3.2
			c-11.8,0-17.1,8.1-17.1,23.7v11.8c0,16.4,5.1,23.6,16.6,23.6c3.9,0,8-1.1,11.3-3.5c1.6-1.2,2.5-2,3.9-2c2.3-0.1,3.8,1.8,3.8,3.9
			C792,102.8,791.5,104,790.4,105.1"/>
		<path class="st0" d="M525.7,83.9c0,0-5.7-1.4-5.7-4c0.1-2.6,7.4-8.7,3.5-13.3c0,0-6.8,6.4-9.2,5.5c-2.4-0.9-0.3-5.3-0.1-5.8
			s-10.7,6.8-11.2,7.4c-0.5,0.6,6.3-21.8,4.8-26.2c0,0-4,4.7-6.1,3.3c-2-1.4-1.4-8.7-11.3-13c0,0,0.8,7.9-0.6,10.8
			c-1,2.2-3.7,4.8-9.6,0.1c0,0,3.2,17,0.8,20.8c-1,1.5-11.2-11.2-11.7-11.5c-0.2,1.1,2.4,7.8-5.4,5.4c-2.4-0.8-6.6-3.8-6.9-5
			c0,0-1.6,3.8,3.4,12c3.5,5.8-6.1,3.9-6.1,3.9c2,6.5,12.5,11.3,12.9,11.5c0,0-4.5-1.3-6,1.5c-0.1,0.1-0.2,0.4-0.2,0.4
			c3,0.3,7.8,6,13.3,6.2c3.1,0.2,5.7,0.2,7.4,0.1c0.8,0.3,1.2,1.1-0.8,4.4c-2.8,4.7-6.3,4.9-8.8,8.6c0,0,0.6,2.3,1.5,2.5
			c0.9,0.2,2.4-1.3,3.4-2.8c1.1-1.5,4.3-4.5,5.6-6.2c1-1.3,1.8-3.4,2.6-4.6c1.7,1.8,7.3,5.2,12.5,4.9c8.2-0.6,16.2-6.3,16.2-6.3
			s-5.9,0.5-5.5-0.3C512,87.8,525.7,83.9,525.7,83.9"/>
	</g>
</g>
</svg>
